<svg width="51" height="67" fill="none" xmlns="http://www.w3.org/2000/svg"><path d="M50 24c.4-1.5.1-3-.8-4.3-.8-1.3-2.1-2.2-3.6-2.6-1.2-.3-2.6-.2-3.7.4l.8-3.6c.7-3.1-1.2-6.2-4.3-6.9-1.3-.3-2.6-.1-3.7.4l.1-.4c.4-1.5.1-3-.8-4.3-.8-1.3-2.1-2.2-3.6-2.6-1.5-.4-3-.1-4.3.8-1.3.8-2.2 2.1-2.6 3.6L23 6.3c-.8-1-1.9-1.7-3.2-1.9-3.1-.7-6.2 1.2-6.9 4.4L11 17.6C8 17 5 19 4.2 22L.5 38.8c-2.7 12.1 5 24.2 17.1 26.9h.1c5.8 1.3 12 .3 17-3s8.6-8.2 9.9-14.2L50 24zm-7.6 24C40 59 29.1 65.9 18.1 63.5H18C7.2 61 .3 50.2 2.7 39.2l3.7-16.7c.4-1.9 2.3-3.1 4.2-2.7.3.1.4.1.6.2.6.3 1.2.7 1.5 1.3.5.8.7 1.8.4 2.7l-2.2 11v.8s0 .1.1.1c0 0 0 .1.1.1l.1.1.1.1.1.1c4.2 3 6.3 8.3 5.2 13.3-.1.6.3 1.2.9 1.3.6.1 1.2-.3 1.3-.9 1.2-5.6-1-11.6-5.5-15.1l2.3-10.4c.4-1.5.1-3-.8-4.3-.4-.7-1.1-1.3-1.7-1.8l2-9.1c.4-1.9 2.3-3.1 4.2-2.7 1.9.4 3.1 2.3 2.7 4.2l-3.7 16.7c-.2.6.3 1.2.9 1.3.6.1 1.2-.3 1.3-.9L25.6 5c.2-.9.8-1.7 1.6-2.2.9-.6 1.8-.8 2.7-.5.9.2 1.7.8 2.2 1.6.5.8.7 1.8.4 2.7L27 31.2c-.2.6.3 1.2.9 1.3.6.1 1.2-.3 1.3-.9l4.5-19.9c.5-1.9 2.3-3 4.3-2.6 1.9.4 3.1 2.3 2.7 4.2l-1.8 8.1-3.7 16.7c-.2.6.3 1.2.9 1.3.6.1 1.2-.3 1.3-.9L40.9 22c.2-.9.8-1.7 1.6-2.2.8-.5 1.8-.7 2.7-.4.9.2 1.7.8 2.2 1.6.5.8.7 1.8.4 2.7L42.4 48z" fill="#000"/></svg>