<svg width="90" height="90" fill="none" xmlns="http://www.w3.org/2000/svg"><path d="M76.37 15.873L55.86 27.555V16.92c.192-4.426.288-8.853.288-13.28v-1.5H34.716v25.37L14.514 15.596l-1.385-.817-.719 1.438a288.077 288.077 0 01-3.999 7.713 355.261 355.261 0 01-4.288 7.148l-.792 1.287 1.292.782L24.305 45.06 4.38 56.186l-1.333.745.767 1.32 9.216 15.84.753 1.293 1.296-.75a308.705 308.705 0 0110.89-6.019l.027-.014.027-.015 8.692-5.032v23.954h20.28v-13.85c.152-3.357.244-6.713.276-10.07l19.919 11.9 1.313.784.758-1.328 4.608-8.064 4.608-8.064.757-1.324-1.336-.734a586.251 586.251 0 01-11.203-6.32l-8.66-5.014a216.095 216.095 0 008.982-5.37 352.103 352.103 0 0111.457-6.588l1.341-.738-.765-1.326-8.64-14.976-.745-1.292-1.296.739z" stroke="#fff"/></svg>