<svg width="51" height="67" viewBox="0 0 51 67" fill="none" xmlns="http://www.w3.org/2000/svg">
<path d="M50 24C50.4 22.5 50.1 21 49.2 19.7C48.4 18.4 47.1 17.5 45.6 17.1C44.4 16.8 43 16.9 41.9 17.5L42.7 13.9C43.4 10.8 41.5 7.7 38.4 7C37.1 6.7 35.8 6.9 34.7 7.4L34.8 7C35.2 5.5 34.9 4 34 2.7C33.2 1.4 31.9 0.499998 30.4 0.0999981C28.9 -0.300002 27.4 -1.90735e-06 26.1 0.899998C24.8 1.7 23.9 3 23.5 4.5L23 6.3C22.2 5.3 21.1 4.6 19.8 4.4C16.7 3.7 13.6 5.6 12.9 8.8L11 17.6C8 17 5 19 4.2 22L0.5 38.8C-2.2 50.9 5.5 63 17.6 65.7H17.7C23.5 67 29.7 66 34.7 62.7C39.7 59.4 43.3 54.5 44.6 48.5L50 24ZM42.4 48C40 59 29.1 65.9 18.1 63.5H18C7.2 61 0.3 50.2 2.7 39.2L6.4 22.5C6.8 20.6 8.7 19.4 10.6 19.8C10.9 19.9 11 19.9 11.2 20C11.8 20.3 12.4 20.7 12.7 21.3C13.2 22.1 13.4 23.1 13.1 24L10.9 35C10.9 35 10.9 35 10.9 35.1C10.9 35.1 10.9 35.1 10.9 35.2V35.3C10.9 35.4 10.9 35.5 10.9 35.5V35.6V35.7V35.8C10.9 35.8 10.9 35.9 11 35.9C11 35.9 11 36 11.1 36L11.2 36.1L11.3 36.2C11.3 36.2 11.3 36.2 11.4 36.3C15.6 39.3 17.7 44.6 16.6 49.6C16.5 50.2 16.9 50.8 17.5 50.9C18.1 51 18.7 50.6 18.8 50C20 44.4 17.8 38.4 13.3 34.9L15.6 24.5C16 23 15.7 21.5 14.8 20.2C14.4 19.5 13.7 18.9 13.1 18.4L15.1 9.3C15.5 7.4 17.4 6.2 19.3 6.6C21.2 7 22.4 8.9 22 10.8L18.3 27.5C18.1 28.1 18.6 28.7 19.2 28.8C19.8 28.9 20.4 28.5 20.5 27.9L25.6 5C25.8 4.1 26.4 3.3 27.2 2.8C28.1 2.2 29 2 29.9 2.3C30.8 2.5 31.6 3.1 32.1 3.9C32.6 4.7 32.8 5.7 32.5 6.6L27 31.2C26.8 31.8 27.3 32.4 27.9 32.5C28.5 32.6 29.1 32.2 29.2 31.6L33.7 11.7C34.2 9.8 36 8.7 38 9.1C39.9 9.5 41.1 11.4 40.7 13.3L38.9 21.4L35.2 38.1C35 38.7 35.5 39.3 36.1 39.4C36.7 39.5 37.3 39.1 37.4 38.5L40.9 22C41.1 21.1 41.7 20.3 42.5 19.8C43.3 19.3 44.3 19.1 45.2 19.4C46.1 19.6 46.9 20.2 47.4 21C47.9 21.8 48.1 22.8 47.8 23.7L42.4 48Z" fill="black"/>
</svg>
