<svg width="90" height="90" viewBox="0 0 90 90" fill="none" xmlns="http://www.w3.org/2000/svg">
<path d="M76.3696 15.8726L55.86 27.5553V27.5485V27.5226V27.4967V27.4709V27.445V27.4191V27.3932V27.3674V27.3415V27.3156V27.2897V27.2639V27.238V27.2121V27.1862V27.1604V27.1345V27.1086V27.0827V27.0569V27.031V27.0051V26.9792V26.9534V26.9275V26.9016V26.8757V26.8499V26.824V26.7981V26.7722V26.7464V26.7205V26.6946V26.6687V26.6429V26.617V26.5911V26.5652V26.5394V26.5135V26.4876V26.4617V26.4359V26.41V26.3841V26.3582V26.3324V26.3065V26.2806V26.2547V26.2289V26.203V26.1771V26.1512V26.1254V26.0995V26.0736V26.0477V26.0219V25.996V25.9701V25.9442V25.9184V25.8925V25.8666V25.8407V25.8149V25.789V25.7631V25.7372V25.7114V25.6855V25.6596V25.6337V25.6079V25.582V25.5561V25.5302V25.5044V25.4785V25.4526V25.4267V25.4009V25.375V25.3491V25.3232V25.2974V25.2715V25.2456V25.2197V25.1939V25.168V25.1421V25.1162V25.0904V25.0645V25.0386V25.0127V24.9869V24.961V24.9351V24.9092V24.8834V24.8575V24.8316V24.8057V24.7799V24.754V24.7281V24.7022V24.6764V24.6505V24.6246V24.5987V24.5729V24.547V24.5211V24.4952V24.4694V24.4435V24.4176V24.3917V24.3659V24.34V24.3141V24.2882V24.2624V24.2365V24.2106V24.1847V24.1589V24.133V24.1071V24.0812V24.0554V24.0295V24.0036V23.9777V23.9519V23.926V23.9001V23.8742V23.8484V23.8225V23.7966V23.7707V23.7449V23.719V23.6931V23.6672V23.6414V23.6155V23.5896V23.5637V23.5379V23.512V23.4861V23.4602V23.4344V23.4085V23.3826V23.3567V23.3309V23.305V23.2791V23.2532V23.2274V23.2015V23.1756V23.1497V23.1239V23.098V23.0721V23.0462V23.0204V22.9945V22.9686V22.9427V22.9169V22.891V22.8651V22.8392V22.8134V22.7875V22.7616V22.7357V22.7099V22.684V22.6581V22.6322V22.6064V22.5805V22.5546V22.5287V22.5029V22.477V22.4511V22.4252V22.3994V22.3735V22.3476V22.3217V22.2959V22.27V22.2441V22.2182V22.1924V22.1665V22.1406V22.1147V22.0889V22.063V22.0371V22.0112V21.9854V21.9595V21.9336V21.9077V21.8819V21.856V21.8301V21.8042V21.7784V21.7525V21.7266V21.7007V21.6749V21.649V21.6231V21.5972V21.5714V21.5455V21.5196V21.4937V21.4679V21.442V21.4161V21.3902V21.3644V21.3385V21.3126V21.2867V21.2609V21.235V21.2091V21.1832V21.1574V21.1315V21.1056V21.0797V21.0539V21.028V21.0021V20.9762V20.9504V20.9245V20.8986V20.8727V20.8469V20.821V20.7951V20.7692V20.7434V20.7175V20.6916V20.6657V20.6399V20.614V20.5881V20.5622V20.5364V20.5105V20.4846V20.4587V20.4329V20.407V20.3811V20.3552V20.3294V20.3035V20.2776V20.2517V20.2259V20.2V20.1741V20.1482V20.1224V20.0965V20.0706V20.0447V20.0189V19.993V19.9671V19.9412V19.9154V19.8895V19.8636V19.8377V19.8119V19.786V19.7601V19.7342V19.7084V19.6825V19.6566V19.6307V19.6049V19.579V19.5531V19.5272V19.5014V19.4755V19.4496V19.4237V19.3979V19.372V19.3461V19.3202V19.2944V19.2685V19.2426V19.2167V19.1909V19.165V19.1391V19.1132V19.0874V19.0615V19.0356V19.0097V18.9839V18.958V18.9321V18.9062V18.8804V18.8545V18.8286V18.8027V18.7769V18.751V18.7251V18.6992V18.6734V18.6475V18.6216V18.5957V18.5699V18.544V18.5181V18.4922V18.4664V18.4405V18.4146V18.3887V18.3629V18.337V18.3111V18.2852V18.2594V18.2335V18.2076V18.1817V18.1559V18.13V18.1041V18.0782V18.0524V18.0265V18.0006V17.9747V17.9489V17.923V17.8971V17.8712V17.8454V17.8195V17.7936V17.7677V17.7419V17.716V17.6901V17.6642V17.6384V17.6125V17.5866V17.5607V17.5349V17.509V17.4831V17.4572V17.4314V17.4055V17.3796V17.3537V17.3279V17.302V17.2761V17.2502V17.2244V17.1985V17.1726V17.1467V17.1209V17.095V17.0691V17.0432V17.0174V16.9915V16.9656V16.9397V16.9206C56.052 12.4937 56.148 8.06687 56.148 3.63998V2.13998H54.648H36.216H34.716V3.63998V27.5099L14.514 15.5959L13.1293 14.7793L12.4104 16.2172C11.0768 18.8843 9.74379 21.4553 8.41142 23.9303C7.0776 26.2164 5.64801 28.5989 4.12251 31.0778L3.33055 32.3648L4.6233 33.1472L24.3049 45.0598L4.38065 56.1864L3.04771 56.9307L3.81548 58.2503L13.0315 74.0903L13.7842 75.3841L15.0796 74.6341C18.7105 72.532 22.3409 70.5258 25.9706 68.6154L25.9974 68.6013L26.0236 68.5861L34.716 63.5537V86.008V87.508H36.216H53.496H54.996V86.008V85.9832V85.9585V85.9337V85.909V85.8843V85.8595V85.8348V85.8101V85.7853V85.7606V85.7359V85.7111V85.6864V85.6617V85.637V85.6123V85.5876V85.5628V85.5381V85.5134V85.4887V85.464V85.4393V85.4146V85.3899V85.3652V85.3405V85.3158V85.2912V85.2665V85.2418V85.2171V85.1924V85.1678V85.1431V85.1184V85.0937V85.0691V85.0444V85.0197V84.9951V84.9704V84.9458V84.9211V84.8965V84.8718V84.8472V84.8225V84.7979V84.7732V84.7486V84.724V84.6993V84.6747V84.6501V84.6254V84.6008V84.5762V84.5516V84.5269V84.5023V84.4777V84.4531V84.4285V84.4039V84.3793V84.3547V84.3301V84.3055V84.2809V84.2563V84.2317V84.2071V84.1825V84.1579V84.1333V84.1087V84.0842V84.0596V84.035V84.0104V83.9859V83.9613V83.9367V83.9122V83.8876V83.8631V83.8385V83.8139V83.7894V83.7648V83.7403V83.7157V83.6912V83.6666V83.6421V83.6176V83.593V83.5685V83.544V83.5194V83.4949V83.4704V83.4459V83.4213V83.3968V83.3723V83.3478V83.3233V83.2988V83.2743V83.2498V83.2253V83.2008V83.1763V83.1518V83.1273V83.1028V83.0783V83.0538V83.0293V83.0048V82.9804V82.9559V82.9314V82.9069V82.8825V82.858V82.8335V82.8091V82.7846V82.7601V82.7357V82.7112V82.6868V82.6623V82.6379V82.6134V82.589V82.5645V82.5401V82.5156V82.4912V82.4668V82.4423V82.4179V82.3935V82.369V82.3446V82.3202V82.2958V82.2714V82.247V82.2225V82.1981V82.1737V82.1493V82.1249V82.1005V82.0761V82.0517V82.0273V82.0029V81.9785V81.9541V81.9298V81.9054V81.881V81.8566V81.8322V81.8079V81.7835V81.7591V81.7347V81.7104V81.686V81.6617V81.6373V81.6129V81.5886V81.5642V81.5399V81.5155V81.4912V81.4668V81.4425V81.4182V81.3938V81.3695V81.3451V81.3208V81.2965V81.2722V81.2478V81.2235V81.1992V81.1749V81.1506V81.1262V81.1019V81.0776V81.0533V81.029V81.0047V80.9804V80.9561V80.9318V80.9075V80.8832V80.8589V80.8346V80.8104V80.7861V80.7618V80.7375V80.7132V80.689V80.6647V80.6404V80.6162V80.5919V80.5676V80.5434V80.5191V80.4949V80.4706V80.4464V80.4221V80.3979V80.3736V80.3494V80.3251V80.3009V80.2766V80.2524V80.2282V80.2039V80.1797V80.1555V80.1313V80.107V80.0828V80.0586V80.0344V80.0102V79.986V79.9618V79.9376V79.9134V79.8892V79.865V79.8408V79.8166V79.7924V79.7682V79.744V79.7198V79.6956V79.6714V79.6473V79.6231V79.5989V79.5747V79.5506V79.5264V79.5022V79.4781V79.4539V79.4297V79.4056V79.3814V79.3573V79.3331V79.309V79.2848V79.2607V79.2365V79.2124V79.1883V79.1641V79.14V79.1159V79.0917V79.0676V79.0435V79.0193V78.9952V78.9711V78.947V78.9229V78.8988V78.8747V78.8506V78.8264V78.8023V78.7782V78.7541V78.73V78.706V78.6819V78.6578V78.6337V78.6096V78.5855V78.5614V78.5374V78.5133V78.4892V78.4651V78.4411V78.417V78.3929V78.3689V78.3448V78.3207V78.2967V78.2726V78.2486V78.2245V78.2005V78.1764V78.1524V78.1284V78.1043V78.0803V78.0562V78.0322V78.0082V77.9842V77.9601V77.9361V77.9121V77.8881V77.864V77.84V77.816V77.792V77.768V77.744V77.72V77.696V77.672V77.648V77.624V77.6V77.576V77.552V77.528V77.5041V77.4801V77.4561V77.4321V77.4081V77.3842V77.3602V77.3362V77.3123V77.2883V77.2643V77.2404V77.2164V77.1925V77.1685V77.1445V77.1206V77.0967V77.0727V77.0488V77.0248V77.0009V76.977V76.953V76.9291V76.9052V76.8812V76.8573V76.8334V76.8095V76.7855V76.7616V76.7377V76.7138V76.6899V76.666V76.6421V76.6182V76.5943V76.5704V76.5465V76.5226V76.4987V76.4748V76.4509V76.427V76.4032V76.3793V76.3554V76.3315V76.3076V76.2838V76.2599V76.236V76.2122V76.1883V76.1644V76.1406V76.1167V76.0929V76.069V76.0452V76.0213V75.9975V75.9736V75.9498V75.9259V75.9021V75.8783V75.8544V75.8306V75.8068V75.783V75.7591V75.7353V75.7115V75.6877V75.6639V75.64V75.6162V75.5924V75.5686V75.5448V75.521V75.4972V75.4734V75.4496V75.4258V75.402V75.3783V75.3545V75.3307V75.3069V75.2831V75.2593V75.2356V75.2118V75.188V75.1643V75.1405V75.1167V75.093V75.0692V75.0454V75.0217V74.9979V74.9742V74.9504V74.9267V74.9029V74.8792V74.8555V74.8317V74.808V74.7842V74.7605V74.7368V74.7131V74.6893V74.6656V74.6419V74.6182V74.5945V74.5707V74.547V74.5233V74.4996V74.4759V74.4522V74.4285V74.4048V74.3811V74.3574V74.3337V74.31V74.2863V74.2627V74.239V74.2153V74.1916V74.1679V74.1443V74.1206V74.0969V74.0733V74.0496V74.0259V74.0023V73.9786V73.9549V73.9313V73.9076V73.884V73.8603V73.8367V73.8131V73.7894V73.7658V73.7421V73.7185V73.6949V73.6712V73.658C55.1482 70.3013 55.24 66.9447 55.2716 63.588L75.1907 75.4877L76.5036 76.272L77.2624 74.9442L81.8704 66.8802L86.4784 58.8162L87.2348 57.4924L85.8989 56.7577C82.0681 54.6507 78.3337 52.5441 74.6956 50.4378L66.0357 45.4242C69.0911 43.6958 72.0854 41.9056 75.0184 40.0535C78.8377 37.7621 82.6566 35.5664 86.4749 33.4663L87.8163 32.7285L87.0513 31.4024L78.4113 16.4264L77.6658 15.1342L76.3696 15.8726Z" stroke="white" stroke-width="1"/>
</svg>
