<svg width="725" height="414" viewBox="0 0 725 414" fill="none" xmlns="http://www.w3.org/2000/svg">
<g clip-path="url(#clip0)">
<path d="M570.507 0C485.18 0 416.014 69.1312 416.014 154.415C416.014 239.698 485.18 308.829 570.507 308.829C655.834 308.829 725 239.698 725 154.415C725 69.1312 655.827 0 570.507 0ZM570.507 267.069C508.359 267.069 457.795 216.531 457.795 154.415C457.795 92.2986 508.353 41.7599 570.507 41.7599C632.661 41.7599 683.219 92.2986 683.219 154.415C683.219 216.531 632.654 267.069 570.507 267.069Z" fill="#1D1D1B"/>
<path d="M375.646 15.4883H333.865V296.692H375.646V15.4883Z" fill="#1D1D1B"/>
<path d="M148.835 7.13245C66.6336 7.13245 0 73.7322 0 155.892C0 159.888 0.201841 163.838 0.514369 167.762V414.007H42.2955V259.716C69.3291 287.425 107.06 304.651 148.842 304.651C231.043 304.651 297.676 238.051 297.676 155.892C297.67 73.7322 231.036 7.13245 148.835 7.13245Z" fill="#1D1D1B"/>
</g>
<defs>
<clipPath id="clip0">
<rect width="725" height="414" fill="white"/>
</clipPath>
</defs>
</svg>
