<svg width="725" height="414" fill="none" xmlns="http://www.w3.org/2000/svg"><g clip-path="url(#clip0)" fill="#1D1D1B"><path d="M570.507 0C485.18 0 416.014 69.131 416.014 154.415c0 85.283 69.166 154.414 154.493 154.414S725 239.698 725 154.415C725 69.131 655.827 0 570.507 0zm0 267.069c-62.148 0-112.712-50.538-112.712-112.654S508.353 41.76 570.507 41.76s112.712 50.539 112.712 112.655-50.565 112.654-112.712 112.654zM375.646 15.488h-41.781v281.204h41.781V15.488zM148.835 7.132C66.634 7.132 0 73.732 0 155.892c0 3.996.202 7.946.514 11.87v246.245h41.781V259.716c27.034 27.709 64.765 44.935 106.547 44.935 82.201 0 148.834-66.6 148.834-148.759-.006-82.16-66.64-148.76-148.841-148.76z"/></g><defs><clipPath id="clip0"><path fill="#fff" d="M0 0h725v414H0z"/></clipPath></defs></svg>